<?xml version="1.0" encoding="utf-8"?>
<!-- Generator: Adobe Illustrator 18.1.1, SVG Export Plug-In . SVG Version: 6.00 Build 0)  -->
<!DOCTYPE svg PUBLIC "-//W3C//DTD SVG 1.1//EN" "http://www.w3.org/Graphics/SVG/1.1/DTD/svg11.dtd">
<svg version="1.1" id="Layer_1" xmlns="http://www.w3.org/2000/svg" xmlns:xlink="http://www.w3.org/1999/xlink" x="0px" y="0px"
	 viewBox="0 0 32 32" enable-background="new 0 0 32 32" xml:space="preserve">
<g>
	<polygon fill="#DBD4C9" points="13,11 17,5.6 17,1.4 12.3,7.9 7.3,1 7.3,5.6 11.3,11 	"/>
	<polygon fill="#DBD4C9" points="8.8,17.4 5.8,17.4 5.8,0 0,0 0,2.4 2.7,2.4 2.7,17.4 0,17.4 0,19.8 8.8,19.8 	"/>
	<polygon fill="#DBD4C9" points="24.7,13.5 21.6,17.8 21.6,2.4 24.3,2.4 24.3,0 18.5,0 18.5,17.9 15,13.1 15,17.7 19,23.2 
		20.7,23.2 24.7,17.7 	"/>
	<polygon fill="#DBD4C9" points="32,14.6 32,12.2 26.2,12.2 26.2,29.6 23.2,29.6 23.2,32 32,32 32,29.6 29.3,29.6 29.3,14.6 	"/>
	<polygon fill="#DBD4C9" points="13.5,12.2 7.7,12.2 7.7,14.6 10.4,14.6 10.4,29.6 7.7,29.6 7.7,32 16.5,32 16.5,29.6 13.5,29.6 	
		"/>
</g>
</svg>
