<?xml version="1.0" encoding="utf-8"?>
<!-- Generator: Adobe Illustrator 18.1.1, SVG Export Plug-In . SVG Version: 6.00 Build 0)  -->
<!DOCTYPE svg PUBLIC "-//W3C//DTD SVG 1.1//EN" "http://www.w3.org/Graphics/SVG/1.1/DTD/svg11.dtd">
<svg version="1.1" id="Layer_1" xmlns="http://www.w3.org/2000/svg" xmlns:xlink="http://www.w3.org/1999/xlink" x="0px" y="0px"
	 viewBox="0 0 340 340" enable-background="new 0 0 340 340" xml:space="preserve">
<g>
	<g>
		<path fill="#DCD5CA" d="M170,340C76.3,340,0,263.7,0,170S76.3,0,170,0c93.7,0,170,76.3,170,170S263.7,340,170,340z M170,4.7
			C78.9,4.7,4.7,78.9,4.7,170S78.9,335.3,170,335.3c91.1,0,165.3-74.1,165.3-165.3S261.1,4.7,170,4.7z"/>
	</g>
	<g>
		<path fill="#D96D5C" d="M69.9,233.3c-0.2,0-0.3-0.1-0.3-0.3v-13.2c0-0.2,0.1-0.3,0.3-0.3h1.3c0.2,0,0.3,0.1,0.3,0.3v13.2
			c0,0.2-0.1,0.3-0.3,0.3H69.9z"/>
		<path fill="#D96D5C" d="M89.3,233.3c-0.2,0-0.3-0.1-0.3-0.3L84.4,223v10.1c0,0.2-0.1,0.3-0.3,0.3h-1.3c-0.2,0-0.3-0.1-0.3-0.3
			v-13.2c0-0.2,0.1-0.3,0.3-0.3h1.9c0.2,0,0.2,0.1,0.3,0.3l4.2,9.4v-9.4c0-0.2,0.1-0.3,0.3-0.3h1.3c0.2,0,0.3,0.1,0.3,0.3v13.2
			c0,0.2-0.1,0.3-0.3,0.3H89.3z"/>
		<path fill="#D96D5C" d="M105,233.3c-0.2,0-0.3-0.1-0.4-0.3l-3.4-13.1c0-0.2,0.1-0.4,0.2-0.4h1.4c0.2,0,0.3,0.1,0.3,0.3l1.8,7.1
			l0.8,3.7l0.8-3.7l1.8-7.1c0-0.2,0.1-0.3,0.3-0.3h1.4c0.2,0,0.3,0.2,0.2,0.4l-3.4,13.1c0,0.2-0.2,0.3-0.4,0.3H105z"/>
		<path fill="#D96D5C" d="M120.8,233.3c-0.2,0-0.3-0.1-0.3-0.3v-13.2c0-0.2,0.1-0.3,0.3-0.3h1.3c0.2,0,0.3,0.1,0.3,0.3v13.2
			c0,0.2-0.1,0.3-0.3,0.3H120.8z"/>
		<path fill="#D96D5C" d="M136.3,233.3c-0.1,0-0.2-0.1-0.2-0.2v-11.7h-3c-0.2,0-0.3-0.1-0.3-0.3v-1.3c0-0.2,0.1-0.3,0.3-0.3h7.9
			c0.2,0,0.3,0.1,0.3,0.3v1.3c0,0.1-0.1,0.3-0.3,0.3h-3v11.7c0,0.1-0.1,0.2-0.2,0.2H136.3z"/>
		<path fill="#D96D5C" d="M158.4,233.3c-0.1,0-0.3-0.1-0.4-0.3l-0.9-3.2H152l-0.9,3.1c-0.1,0.2-0.2,0.3-0.4,0.3h-1.2
			c-0.2,0-0.3-0.1-0.3-0.3l3.9-13.2c0.1-0.2,0.1-0.3,0.3-0.3h2.3c0.2,0,0.2,0.1,0.3,0.3l3.9,13.2c0,0.1-0.1,0.3-0.3,0.3H158.4z
			 M154.5,221.2l-2,6.8h4L154.5,221.2z"/>
		<path fill="#D96D5C" d="M171.5,233.3c-0.1,0-0.2-0.1-0.2-0.2v-11.7h-3c-0.2,0-0.3-0.1-0.3-0.3v-1.3c0-0.2,0.1-0.3,0.3-0.3h7.9
			c0.2,0,0.3,0.1,0.3,0.3v1.3c0,0.1-0.1,0.3-0.3,0.3h-3v11.7c0,0.1-0.1,0.2-0.2,0.2H171.5z"/>
		<path fill="#D96D5C" d="M187.1,233.3c-0.2,0-0.3-0.1-0.3-0.3v-13.2c0-0.2,0.1-0.3,0.3-0.3h1.3c0.2,0,0.3,0.1,0.3,0.3v13.2
			c0,0.2-0.1,0.3-0.3,0.3H187.1z"/>
		<path fill="#D96D5C" d="M207,233.1c-0.1,0.1-0.3,0.2-0.5,0.2h-5.1c-0.2,0-0.4-0.1-0.5-0.2l-1.1-1.1c-0.2-0.2-0.2-0.4-0.2-0.5
			v-10.1c0-0.2,0-0.4,0.2-0.5l1.1-1.1c0.2-0.2,0.3-0.2,0.5-0.2h5.1c0.2,0,0.3,0,0.5,0.2l1.1,1.1c0.2,0.2,0.2,0.4,0.2,0.6v10
			c0,0.2-0.1,0.4-0.2,0.6L207,233.1z M206.5,230.9C206.5,230.9,206.5,230.9,206.5,230.9l0-9l-0.5-0.5c-0.1-0.1-0.1-0.1-0.1-0.1h-3.8
			c0,0-0.1,0-0.1,0.1l-0.5,0.5v8.9c0,0,0,0.1,0,0.1l0.5,0.5c0,0,0.1,0.1,0.2,0.1h3.7c0.1,0,0.2,0,0.2-0.1L206.5,230.9z"/>
		<path fill="#D96D5C" d="M226.1,233.3c-0.2,0-0.3-0.1-0.3-0.3l-4.6-10.1v10.1c0,0.2-0.1,0.3-0.3,0.3h-1.3c-0.2,0-0.3-0.1-0.3-0.3
			v-13.2c0-0.2,0.1-0.3,0.3-0.3h1.9c0.2,0,0.2,0.1,0.3,0.3l4.2,9.4v-9.4c0-0.2,0.1-0.3,0.3-0.3h1.3c0.2,0,0.3,0.1,0.3,0.3v13.2
			c0,0.2-0.1,0.3-0.3,0.3H226.1z"/>
		<path fill="#D96D5C" d="M247.2,233.3c-0.1,0-0.3-0.1-0.4-0.3l-0.9-3.2h-5.1l-0.9,3.1c-0.1,0.2-0.2,0.3-0.4,0.3h-1.2
			c-0.2,0-0.3-0.1-0.3-0.3l3.9-13.2c0.1-0.2,0.1-0.3,0.3-0.3h2.3c0.2,0,0.2,0.1,0.3,0.3l3.9,13.2c0,0.1-0.1,0.3-0.3,0.3H247.2z
			 M243.3,221.2l-2,6.8h4L243.3,221.2z"/>
		<path fill="#D96D5C" d="M259.1,233.3c-0.2,0-0.3-0.1-0.3-0.3v-13.2c0-0.1,0.1-0.2,0.3-0.2h1.3c0.1,0,0.3,0.1,0.3,0.2v11.7h5.8
			c0.2,0,0.3,0.1,0.3,0.3v1.3c0,0.2-0.1,0.3-0.3,0.3H259.1z"/>
	</g>
	<g>
		<path fill="#DCD5CA" d="M293.6,211.5H45.2c-0.3,0-0.6-0.3-0.6-0.6s0.3-0.6,0.6-0.6h248.4c0.3,0,0.6,0.3,0.6,0.6
			S293.9,211.5,293.6,211.5z"/>
	</g>
	<g>
		<path fill="#DCD5CA" d="M285.9,242.6"/>
	</g>
	<g>
		<path fill="#DCD5CA" d="M54.6,242.2"/>
	</g>
	<g>
		<g>
			<path fill="#DCD5CA" d="M54.9,159.7H32.4c-0.3,0-0.6-0.3-0.6-0.6c0-0.3,0.3-0.6,0.6-0.6h22.5c0.3,0,0.6,0.3,0.6,0.6
				C55.5,159.5,55.2,159.7,54.9,159.7z"/>
		</g>
		<g>
			<path fill="#DCD5CA" d="M28.1,159.7h-7.2c-0.3,0-0.6-0.3-0.6-0.6c0-0.3,0.3-0.6,0.6-0.6h7.2c0.3,0,0.6,0.3,0.6,0.6
				C28.7,159.5,28.5,159.7,28.1,159.7z"/>
		</g>
		<g>
			<path fill="#DCD5CA" d="M64.4,159.7h-5.2c-0.3,0-0.6-0.3-0.6-0.6c0-0.3,0.3-0.6,0.6-0.6h5.2c0.3,0,0.6,0.3,0.6,0.6
				C65,159.5,64.7,159.7,64.4,159.7z"/>
		</g>
		<g>
			<path fill="#DCD5CA" d="M54.9,178.5H32.4c-0.3,0-0.6-0.3-0.6-0.6s0.3-0.6,0.6-0.6h22.5c0.3,0,0.6,0.3,0.6,0.6
				S55.2,178.5,54.9,178.5z"/>
		</g>
		<g>
			<path fill="#DCD5CA" d="M28.1,178.5h-7.2c-0.3,0-0.6-0.3-0.6-0.6s0.3-0.6,0.6-0.6h7.2c0.3,0,0.6,0.3,0.6,0.6
				S28.5,178.5,28.1,178.5z"/>
		</g>
		<g>
			<path fill="#DCD5CA" d="M64.4,178.5h-5.2c-0.3,0-0.6-0.3-0.6-0.6s0.3-0.6,0.6-0.6h5.2c0.3,0,0.6,0.3,0.6,0.6
				S64.7,178.5,64.4,178.5z"/>
		</g>
	</g>
	<g>
		<g>
			<path fill="#DCD5CA" d="M25.7,167.4h2.9c0.1,0,0.2,0.1,0.2,0.2v2c0,0.1-0.1,0.2-0.2,0.2h-2.9v2.1h3.8c0.1,0,0.2,0.1,0.2,0.2v2
				c0,0.1-0.1,0.2-0.2,0.2h-6c-0.1,0-0.2-0.1-0.2-0.2V163c0-0.1,0.1-0.2,0.2-0.2h6c0.1,0,0.2,0.1,0.2,0.2v2c0,0.1-0.1,0.2-0.2,0.2
				h-3.8V167.4z"/>
			<path fill="#DCD5CA" d="M40.7,164.3L40.7,164.3l0,1.7c0,0.1-0.1,0.2-0.2,0.2h-2c-0.1,0-0.2-0.1-0.2-0.2v-0.8h-2.1
				c0,0-0.1,0-0.1,0l-0.3,0.3c-0.1,0.1-0.1,0.1-0.1,0.1v1.3l0,0c0,0,0,0.1,0,0.1l0.2,0.2h3.1c0,0,0.2,0,0.4,0.2l0.9,0.9
				c0.2,0.2,0.2,0.4,0.2,0.4v3.9c0,0,0,0.2-0.2,0.4l-0.9,0.9c-0.2,0.2-0.4,0.2-0.4,0.2h-4.3c0,0-0.2,0-0.4-0.2l-0.9-0.9
				c-0.2-0.2-0.2-0.4-0.2-0.4s0,0,0,0v-1.6c0-0.1,0.1-0.2,0.2-0.2h2c0.1,0,0.2,0.1,0.2,0.2v0.7h2.1c0,0,0,0,0.1,0l0.3-0.3
				c0-0.1,0-0.1,0-0.1v-1.2c0,0,0-0.1,0-0.1l-0.3-0.3c0,0,0,0-0.1,0h-3c0,0-0.2,0-0.4-0.2l-0.9-0.9c-0.2-0.2-0.2-0.4-0.2-0.4h0v-3.9
				h0c0,0,0-0.2,0.2-0.4l0.9-0.9c0.2-0.2,0.4-0.2,0.4-0.2h4.3c0,0,0.2,0,0.4,0.2l0.9,0.9C40.8,164.1,40.8,164.3,40.7,164.3
				L40.7,164.3z"/>
			<path fill="#DCD5CA" d="M51.4,163.1v2c0,0.1-0.1,0.2-0.2,0.2H49v8.9c0,0.1-0.1,0.2-0.2,0.2h-2c-0.1,0-0.2-0.1-0.2-0.2v-8.9h-2.1
				c-0.1,0-0.2-0.1-0.2-0.2v-2c0-0.1,0.1-0.2,0.2-0.2h6.6C51.3,162.8,51.4,162.9,51.4,163.1z"/>
			<path fill="#DCD5CA" d="M61.5,173.3l-0.9,0.9c-0.2,0.2-0.4,0.2-0.4,0.2h-5.3c-0.1,0-0.2-0.1-0.2-0.2V163c0-0.1,0.1-0.2,0.2-0.2
				h5.3c0,0,0.2,0,0.4,0.2l0.9,0.9c0.2,0.2,0.2,0.4,0.2,0.4v8.5C61.7,172.8,61.7,173.1,61.5,173.3z M57.1,165.2v6.7H59l0.2-0.2
				c0,0,0-0.1,0-0.1v-5.9c0,0,0-0.1,0-0.1l-0.3-0.3c0,0-0.1,0-0.1,0H57.1z"/>
		</g>
	</g>
	<g>
		<g>
			<path fill="#DCD5CA" d="M308.6,159.7h-22.5c-0.3,0-0.6-0.3-0.6-0.6c0-0.3,0.3-0.6,0.6-0.6h22.5c0.3,0,0.6,0.3,0.6,0.6
				C309.1,159.5,308.9,159.7,308.6,159.7z"/>
		</g>
		<g>
			<path fill="#DCD5CA" d="M281.8,159.7h-7.2c-0.3,0-0.6-0.3-0.6-0.6c0-0.3,0.3-0.6,0.6-0.6h7.2c0.3,0,0.6,0.3,0.6,0.6
				C282.4,159.5,282.1,159.7,281.8,159.7z"/>
		</g>
		<g>
			<path fill="#DCD5CA" d="M318,159.7h-5.2c-0.3,0-0.6-0.3-0.6-0.6c0-0.3,0.3-0.6,0.6-0.6h5.2c0.3,0,0.6,0.3,0.6,0.6
				C318.6,159.5,318.3,159.7,318,159.7z"/>
		</g>
		<g>
			<path fill="#DCD5CA" d="M308.6,178.5h-22.5c-0.3,0-0.6-0.3-0.6-0.6s0.3-0.6,0.6-0.6h22.5c0.3,0,0.6,0.3,0.6,0.6
				S308.9,178.5,308.6,178.5z"/>
		</g>
		<g>
			<path fill="#DCD5CA" d="M281.8,178.5h-7.2c-0.3,0-0.6-0.3-0.6-0.6s0.3-0.6,0.6-0.6h7.2c0.3,0,0.6,0.3,0.6,0.6
				S282.1,178.5,281.8,178.5z"/>
		</g>
		<g>
			<path fill="#DCD5CA" d="M318,178.5h-5.2c-0.3,0-0.6-0.3-0.6-0.6s0.3-0.6,0.6-0.6h5.2c0.3,0,0.6,0.3,0.6,0.6
				S318.3,178.5,318,178.5z"/>
		</g>
	</g>
	<g>
		<g>
			<path fill="#DCD5CA" d="M283.9,171.9c0.1,0,0.2,0.1,0.2,0.2v2c0,0.1-0.1,0.2-0.2,0.2H277c-0.1,0-0.2-0.1-0.2-0.2v-4.9
				c0,0,0-0.2,0.2-0.4l0.9-0.9c0.2-0.2,0.4-0.2,0.4-0.2h3.1l0.2-0.2c0-0.1,0-0.1,0-0.1v-1.7c0,0,0-0.1,0-0.1l-0.3-0.3
				c0,0-0.1-0.1-0.1-0.1h-2.1v0.8c0,0.1-0.1,0.2-0.2,0.2h-2c-0.1,0-0.2-0.1-0.2-0.2v-1.7c0,0,0-0.2,0.2-0.4l0.9-0.9
				c0.2-0.2,0.4-0.2,0.4-0.2l4.3,0v0c0,0,0.2,0,0.4,0.2l0.9,0.9c0.2,0.2,0.2,0.4,0.2,0.4v4.3c0,0,0,0.2-0.2,0.4L283,170
				c-0.2,0.2-0.4,0.2-0.4,0.2h-3l-0.1,0l-0.3,0.3c0,0,0,0.1,0,0.1v1.4H283.9z"/>
			<path fill="#DCD5CA" d="M295.1,164.3C295.1,164.3,295.2,164.3,295.1,164.3l0,8.5c0,0,0,0.2-0.2,0.4l-0.9,0.9
				c-0.2,0.2-0.4,0.2-0.4,0.2h-4.3c0,0-0.2,0-0.4-0.2l-0.9-0.9c-0.2-0.2-0.2-0.4-0.2-0.4c0,0,0,0,0,0v-8.5h0c0,0,0-0.2,0.2-0.4
				l0.9-0.9c0.2-0.2,0.4-0.2,0.4-0.2h4.3c0,0,0.2,0,0.4,0.2l0.9,0.9C295.2,164.1,295.2,164.3,295.1,164.3L295.1,164.3z M292.7,165.5
				l-0.3-0.3c0,0-0.1,0-0.1,0h-1.6c0,0-0.1,0-0.1,0l-0.3,0.3c-0.1,0-0.1,0.1-0.1,0.1v5.9c0,0,0,0.1,0.1,0.1l0.2,0.2h1.9l0.2-0.2
				c0,0,0-0.1,0-0.1v-5.9C292.7,165.7,292.7,165.6,292.7,165.5z"/>
			<path fill="#DCD5CA" d="M306.5,164.3C306.5,164.3,306.5,164.3,306.5,164.3l0,8.5c0,0,0,0.2-0.2,0.4l-0.9,0.9
				c-0.2,0.2-0.4,0.2-0.4,0.2h-4.3c0,0-0.2,0-0.4-0.2l-0.9-0.9c-0.2-0.2-0.2-0.4-0.2-0.4c0,0,0,0,0,0v-8.5h0c0,0,0-0.2,0.2-0.4
				l0.9-0.9c0.2-0.2,0.4-0.2,0.4-0.2h4.3c0,0,0.2,0,0.4,0.2l0.9,0.9C306.5,164.1,306.5,164.3,306.5,164.3L306.5,164.3z M304,165.5
				l-0.3-0.3c0,0-0.1,0-0.1,0H302c0,0-0.1,0-0.1,0l-0.3,0.3c-0.1,0-0.1,0.1-0.1,0.1v5.9c0,0,0,0.1,0.1,0.1l0.2,0.2h1.9l0.2-0.2
				c0,0,0-0.1,0-0.1v-5.9C304.1,165.7,304.1,165.6,304,165.5z"/>
			<path fill="#DCD5CA" d="M318.3,169.2v2c0,0.1-0.1,0.2-0.2,0.2h-0.9v2.7c0,0.1-0.1,0.2-0.2,0.2h-2c-0.1,0-0.2-0.1-0.2-0.2v-2.7
				h-2.9c0,0-0.2,0-0.4-0.2l-0.9-0.9c-0.2-0.2-0.2-0.4-0.2-0.4h0c0,0,0,0,0,0v-6.8c0-0.1,0.1-0.2,0.2-0.2h2c0.1,0,0.2,0.1,0.2,0.2
				v5.6c0,0,0,0.1,0,0.1l0.2,0.2h1.7v-5.9c0-0.1,0.1-0.2,0.2-0.2h2c0.1,0,0.2,0.1,0.2,0.2v5.9h0.9
				C318.2,169,318.3,169.1,318.3,169.2z"/>
		</g>
	</g>
	<g>
		<g>
			<path fill="#DCD5CA" d="M70.7,257.2c-0.1,0-0.3-0.1-0.4-0.2c-0.2-0.2-0.2-0.6,0-0.8l14.2-14.3c0.2-0.2,0.6-0.2,0.8,0
				c0.2,0.2,0.2,0.6,0,0.8L71.1,257C71,257.1,70.8,257.2,70.7,257.2z"/>
		</g>
		<g>
			<path fill="#DCD5CA" d="M82.9,268.1c-0.1,0-0.3-0.1-0.4-0.2c-0.2-0.2-0.2-0.6,0-0.8l25.2-25.1c0.2-0.2,0.6-0.2,0.8,0
				c0.2,0.2,0.2,0.6,0,0.8L83.3,268C83.2,268.1,83,268.1,82.9,268.1z"/>
		</g>
		<g>
			<path fill="#DCD5CA" d="M104,263.4c-0.1,0-0.3-0.1-0.4-0.2c-0.2-0.2-0.2-0.6,0-0.8l15.3-15.3c0.2-0.2,0.6-0.2,0.8,0
				c0.2,0.2,0.2,0.6,0,0.8l-15.3,15.3C104.3,263.3,104.1,263.4,104,263.4z"/>
		</g>
		<g>
			<path fill="#DCD5CA" d="M101,282.7c-0.1,0-0.3-0.1-0.4-0.2c-0.2-0.2-0.2-0.6,0-0.8l40.1-39.8c0.2-0.2,0.6-0.2,0.8,0
				c0.2,0.2,0.2,0.6,0,0.8l-40.1,39.8C101.3,282.7,101.2,282.7,101,282.7z"/>
		</g>
		<g>
			<path fill="#DCD5CA" d="M131.2,270.7c-0.1,0-0.3-0.1-0.4-0.2c-0.2-0.2-0.2-0.6,0-0.8l27.5-27.6c0.2-0.2,0.6-0.2,0.8,0
				c0.2,0.2,0.2,0.6,0,0.8l-27.5,27.6C131.5,270.6,131.3,270.7,131.2,270.7z"/>
		</g>
		<g>
			<path fill="#DCD5CA" d="M164.9,252.1c-0.1,0-0.3-0.1-0.4-0.2c-0.2-0.2-0.2-0.6,0-0.8l9-8.9c0.2-0.2,0.6-0.2,0.8,0
				c0.2,0.2,0.2,0.6,0,0.8l-9,8.9C165.2,252,165.1,252.1,164.9,252.1z"/>
		</g>
		<g>
			<path fill="#DCD5CA" d="M147.1,286.9c-0.1,0-0.3-0.1-0.4-0.2c-0.2-0.2-0.2-0.6,0-0.8l43.9-43.9c0.2-0.2,0.6-0.2,0.8,0
				s0.2,0.6,0,0.8l-43.9,43.9C147.4,286.9,147.3,286.9,147.1,286.9z"/>
		</g>
		<g>
			<path fill="#DCD5CA" d="M169.9,302.1c-0.1,0-0.3-0.1-0.4-0.2c-0.2-0.2-0.2-0.6,0-0.8l58.9-59c0.2-0.2,0.6-0.2,0.8,0
				c0.2,0.2,0.2,0.6,0,0.8l-58.9,59C170.2,302,170.1,302.1,169.9,302.1z"/>
		</g>
		<g>
			<path fill="#DCD5CA" d="M169,284c-0.1,0-0.3-0.1-0.4-0.2c-0.2-0.2-0.2-0.6,0-0.8l29.7-29.7c0.2-0.2,0.6-0.2,0.8,0s0.2,0.6,0,0.8
				l-29.7,29.7C169.3,284,169.2,284,169,284z"/>
		</g>
		<g>
			<path fill="#DCD5CA" d="M235.5,268.8c-0.2,0-0.3-0.1-0.4-0.2c-0.2-0.2-0.2-0.6,0-0.8l14.3-13.9c0.2-0.2,0.6-0.2,0.8,0
				c0.2,0.2,0.2,0.6,0,0.8l-14.3,13.9C235.8,268.8,235.6,268.8,235.5,268.8z"/>
		</g>
		<g>
			<path fill="#DCD5CA" d="M264.2,254.1c-0.1,0-0.3-0.1-0.4-0.2c-0.2-0.2-0.2-0.6,0-0.8l11.2-11.2c0.2-0.2,0.6-0.2,0.8,0
				c0.2,0.2,0.2,0.6,0,0.8l-11.2,11.2C264.5,254,264.4,254.1,264.2,254.1z"/>
		</g>
		<g>
			<path fill="#DCD5CA" d="M199.3,290.4c-0.1,0-0.3-0.1-0.4-0.2c-0.2-0.2-0.2-0.6,0-0.8l34.2-34.2c0.2-0.2,0.6-0.2,0.8,0
				s0.2,0.6,0,0.8l-34.2,34.2C199.6,290.4,199.4,290.4,199.3,290.4z"/>
		</g>
		<g>
			<path fill="#DCD5CA" d="M218.6,291.7c-0.2,0-0.3-0.1-0.4-0.2c-0.2-0.2-0.2-0.6,0.1-0.8l7.6-6.3c0.2-0.2,0.6-0.2,0.8,0.1
				c0.2,0.2,0.2,0.6-0.1,0.8l-7.6,6.3C218.9,291.7,218.7,291.7,218.6,291.7z"/>
		</g>
		<g>
			<path fill="#DCD5CA" d="M124.1,294c-0.2,0-0.3-0.1-0.4-0.2c-0.2-0.2-0.2-0.6,0-0.8l7.5-7.3c0.2-0.2,0.6-0.2,0.8,0
				c0.2,0.2,0.2,0.6,0,0.8l-7.5,7.3C124.4,294,124.2,294,124.1,294z"/>
		</g>
		<g>
			<g>
				<path fill="#DCD5CA" d="M124.4,264.7c-0.3,0-0.6-0.3-0.6-0.6V254c0-0.3,0.3-0.6,0.6-0.6c0.3,0,0.6,0.3,0.6,0.6v10.1
					C125,264.4,124.7,264.7,124.4,264.7z"/>
			</g>
			<g>
				<path fill="#DCD5CA" d="M129.5,259.7h-10.1c-0.3,0-0.6-0.3-0.6-0.6c0-0.3,0.3-0.6,0.6-0.6h10.1c0.3,0,0.6,0.3,0.6,0.6
					C130.1,259.4,129.8,259.7,129.5,259.7z"/>
			</g>
		</g>
		<g>
			<g>
				<path fill="#DCD5CA" d="M131.8,291.7c-0.3,0-0.6-0.3-0.6-0.6v-10.1c0-0.3,0.3-0.6,0.6-0.6c0.3,0,0.6,0.3,0.6,0.6v10.1
					C132.3,291.5,132.1,291.7,131.8,291.7z"/>
			</g>
			<g>
				<path fill="#DCD5CA" d="M136.8,286.7h-10.1c-0.3,0-0.6-0.3-0.6-0.6c0-0.3,0.3-0.6,0.6-0.6h10.1c0.3,0,0.6,0.3,0.6,0.6
					C137.4,286.4,137.1,286.7,136.8,286.7z"/>
			</g>
		</g>
		<g>
			<g>
				<path fill="#DCD5CA" d="M249.8,259.8c-0.3,0-0.6-0.3-0.6-0.6v-10.1c0-0.3,0.3-0.6,0.6-0.6s0.6,0.3,0.6,0.6v10.1
					C250.4,259.5,250.1,259.8,249.8,259.8z"/>
			</g>
			<g>
				<path fill="#DCD5CA" d="M254.8,254.7h-10.1c-0.3,0-0.6-0.3-0.6-0.6c0-0.3,0.3-0.6,0.6-0.6h10.1c0.3,0,0.6,0.3,0.6,0.6
					C255.4,254.5,255.2,254.7,254.8,254.7z"/>
			</g>
		</g>
		<g>
			<g>
				<path fill="#DCD5CA" d="M77.4,255.6c-0.3,0-0.6-0.3-0.6-0.6v-10.1c0-0.3,0.3-0.6,0.6-0.6c0.3,0,0.6,0.3,0.6,0.6V255
					C78,255.3,77.7,255.6,77.4,255.6z"/>
			</g>
			<g>
				<path fill="#DCD5CA" d="M82.4,250.5H72.3c-0.3,0-0.6-0.3-0.6-0.6s0.3-0.6,0.6-0.6h10.1c0.3,0,0.6,0.3,0.6,0.6
					S82.8,250.5,82.4,250.5z"/>
			</g>
		</g>
		<g>
			<g>
				<path fill="#DCD5CA" d="M184.6,273.5c-0.3,0-0.6-0.3-0.6-0.6v-10.1c0-0.3,0.3-0.6,0.6-0.6c0.3,0,0.6,0.3,0.6,0.6v10.1
					C185.2,273.2,184.9,273.5,184.6,273.5z"/>
			</g>
			<g>
				<path fill="#DCD5CA" d="M189.6,268.5h-10.1c-0.3,0-0.6-0.3-0.6-0.6c0-0.3,0.3-0.6,0.6-0.6h10.1c0.3,0,0.6,0.3,0.6,0.6
					C190.2,268.2,190,268.5,189.6,268.5z"/>
			</g>
		</g>
		<g>
			<g>
				<path fill="#DCD5CA" d="M164.8,257.4c-0.3,0-0.6-0.3-0.6-0.6v-10.1c0-0.3,0.3-0.6,0.6-0.6c0.3,0,0.6,0.3,0.6,0.6v10.1
					C165.3,257.1,165.1,257.4,164.8,257.4z"/>
			</g>
			<g>
				<path fill="#DCD5CA" d="M169.8,252.3h-10.1c-0.3,0-0.6-0.3-0.6-0.6c0-0.3,0.3-0.6,0.6-0.6h10.1c0.3,0,0.6,0.3,0.6,0.6
					C170.4,252.1,170.1,252.3,169.8,252.3z"/>
			</g>
		</g>
	</g>
	<g>
		<g>
			<path fill="#DCD5CA" d="M86.3,146.7h16.7v48.5h8.6v6.8H86.3v-6.8h7.8v-41.7h-7.8V146.7z M121.5,168.6l13.4-18.1v11.7l-11.4,15.2
				h-4.8l-11.4-15.2v-12.7L121.5,168.6z M155.8,153.5H148v41.7h7.8v6.8h-25.3v-6.8h8.6v-48.5h16.7V153.5z"/>
		</g>
	</g>
	<g>
		<g>
			<path fill="#DCD5CA" d="M179,146.7h16.7v48.5h8.6v6.8H179v-6.8h7.8v-41.7H179V146.7z M214.1,168.6l13.4-18.1v11.7l-11.4,15.2
				h-4.8L200,162.2v-12.7L214.1,168.6z M248.5,153.5h-7.8v41.7h7.8v6.8h-25.3v-6.8h8.6v-48.5h16.7V153.5z"/>
		</g>
	</g>
	<g>
		<path fill="#DCD5CA" d="M177.3,176.8"/>
	</g>
	<g>
		<path fill="#DCD5CA" d="M156.8,184.3"/>
	</g>
	<g>
		<g>
			<path fill="#DCD5CA" d="M170,37.6c-63.5,0-116.7,44.9-129.4,104.7l2.7-1.2C56.4,83.3,108.2,40,170,40
				c62.5,0,114.8,44.3,127.3,103.2h2.4C287.2,83,233.8,37.6,170,37.6z"/>
		</g>
		<g>
			<path fill="#DCD5CA" d="M298.1,192.7C287.3,253.6,234,300,170,300S52.7,253.6,41.9,192.7h-2.3c10.8,62.2,65.2,109.7,130.4,109.7
				s119.6-47.5,130.4-109.7H298.1z"/>
		</g>
	</g>
	<g>
		<path fill="#DCD5CA" d="M48.4,245.4l-3.6,2.3l2.1,3.2l3.6-2.3l1.7,2.7L42,257.7l-1.7-2.7l3.9-2.5l-2.1-3.2l-3.9,2.5l-1.7-2.7
			l10.1-6.5L48.4,245.4z"/>
		<path fill="#DCD5CA" d="M49.3,267.6l12.7-3.7L63,265l-5.3,12.2l-2.1-2.4l0.7-1.6l-3.2-3.7l-1.7,0.5L49.3,267.6z M55.9,268.7
			l1.6,1.8l1.2-2.7L55.9,268.7z"/>
		<path fill="#DCD5CA" d="M71.9,290.2l0.6-3.6l-1.5-1.3l-2.1,2.4l-2.4-2l7.7-9.2l3.9,3.3c1.9,1.6,2.1,4.4,0.5,6.2
			c-0.8,1-2,1.5-3.2,1.6l-0.9,5L71.9,290.2z M72.8,283.2l1.5,1.3c0.7,0.6,1.8,0.5,2.4-0.2c0.6-0.7,0.5-1.8-0.2-2.4l-1.5-1.3
			L72.8,283.2z"/>
		<path fill="#DCD5CA" d="M97.9,300.1l-0.2,0.4c-1.7,2.8-5.4,3.7-8.3,2c-2.8-1.7-3.7-5.4-2-8.3c1.7-2.8,5.4-3.7,8.3-2
			c1.4,0.9,2.3,2.2,2.7,3.7l-3.1,0.7c-0.2-0.7-0.6-1.3-1.3-1.7c-1.3-0.8-3-0.5-3.9,1c-0.9,1.4-0.3,3.1,0.9,3.9
			c0.8,0.5,1.8,0.6,2.6,0.2l-2-1.2l1.1-1.8L97.9,300.1z"/>
		<path fill="#DCD5CA" d="M110.3,300.1l2.9,1.3l-4.9,11l-2.9-1.3L110.3,300.1z"/>
		<path fill="#DCD5CA" d="M128.8,319.6l-3.8-7.1l-1.6,5.5l-3-0.9l3.5-11.5l1.2,0.4l3.8,7.1l1.6-5.4l3,0.9l-3.5,11.5L128.8,319.6z"/>
		<path fill="#DCD5CA" d="M167.4,325.1l-1.8-3.2l-2-0.1l-0.1,3.2l-3.2-0.1l0.4-12l5.1,0.2c2.4,0.1,4.4,2.1,4.3,4.6
			c0,1.3-0.6,2.4-1.5,3.2l2.4,4.4L167.4,325.1z M163.7,319.1l2,0.1c1,0,1.8-0.7,1.8-1.7c0-1-0.7-1.8-1.7-1.8l-2-0.1L163.7,319.1z"/>
		<path fill="#DCD5CA" d="M182.7,324.7l4.1-12.6l1.4-0.2l7.1,11.3l-3.1,0.4l-0.9-1.5l-4.9,0.6l-0.5,1.6L182.7,324.7z M187.3,319.9
			l2.4-0.3l-1.5-2.5L187.3,319.9z"/>
		<path fill="#DCD5CA" d="M204.1,309l4.9-1.4c2.3-0.7,4.8,0.7,5.4,3.1c0.6,2.3-0.7,4.8-3,5.4l-1.9,0.5l0.9,3.1l-3,0.8L204.1,309z
			 M208.8,314.1l1.9-0.5c0.9-0.3,1.5-1.2,1.2-2.1c-0.3-0.9-1.2-1.5-2.1-1.2l-1.9,0.5L208.8,314.1z"/>
		<path fill="#DCD5CA" d="M226.8,314.5l0.3-13.3l1.3-0.6l10,8.7l-2.9,1.3l-1.3-1.1l-4.5,2l0,1.7L226.8,314.5z M229.8,308.6l2.2-1
			l-2.2-1.9L229.8,308.6z"/>
		<path fill="#DCD5CA" d="M242.7,293.3l4.3-2.7c2.1-1.3,4.8-0.7,6.1,1.4c1.3,2,0.7,4.8-1.3,6.1l-1.7,1.1l1.7,2.7l-2.7,1.7
			L242.7,293.3z M248.7,296.8l1.7-1c0.8-0.5,1.1-1.6,0.5-2.4c-0.5-0.8-1.6-1-2.4-0.5l-1.7,1L248.7,296.8z"/>
		<path fill="#DCD5CA" d="M263.6,278.2c2.5-2.2,6.3-1.9,8.5,0.6c2.2,2.5,1.9,6.3-0.6,8.5c-2.5,2.2-6.3,1.9-8.5-0.6
			C260.9,284.1,261.1,280.3,263.6,278.2z M265.7,280.5c-1.2,1-1.3,2.8-0.3,4c1,1.2,2.8,1.3,4,0.3c1.2-1,1.3-2.9,0.3-4
			C268.7,279.6,266.9,279.5,265.7,280.5z"/>
		<path fill="#DCD5CA" d="M289.6,268.8l-3.6-0.7l-1.3,1.5l2.4,2.1l-2,2.4l-9.2-7.8l3.3-3.9c1.6-1.9,4.4-2.1,6.2-0.5
			c1,0.8,1.5,2,1.5,3.2l5,0.9L289.6,268.8z M282.6,267.9l1.3-1.5c0.6-0.7,0.5-1.8-0.2-2.4c-0.7-0.6-1.8-0.5-2.4,0.2l-1.3,1.5
			L282.6,267.9z"/>
		<path fill="#DCD5CA" d="M288.7,249.9l5-8l2.7,1.7l-1.7,2.7l7.5,4.7l-1.7,2.7l-7.5-4.7l-1.7,2.7L288.7,249.9z"/>
	</g>
	<g>
		<path fill="#DCD5CA" d="M85,42.1l6.3-4l1.4,2.2l-3.6,2.3l1,1.7l3.2-2l1.4,2.2l-3.2,2l1.2,1.9l3.6-2.3l1.4,2.2l-6.3,4L85,42.1z"/>
		<path fill="#DCD5CA" d="M115.6,39.3l-7.5-2.9l2.3,5.2l-2.9,1.3l-4.9-11l1.2-0.5l7.5,2.8l-2.3-5.2l2.9-1.3l4.9,11L115.6,39.3z"/>
		<path fill="#DCD5CA" d="M136.2,25.8l0.1,0.4c0.9,3.2-1,6.5-4.2,7.4c-3.2,0.9-6.5-1-7.4-4.2c-0.9-3.2,1-6.5,4.2-7.4
			c1.6-0.4,3.2-0.2,4.5,0.5l-1.6,2.7c-0.6-0.3-1.4-0.5-2.1-0.2c-1.5,0.4-2.4,1.9-2,3.5c0.4,1.6,2.1,2.4,3.5,2
			c0.9-0.3,1.6-0.9,1.9-1.8l-2.2,0.6l-0.6-2L136.2,25.8z"/>
		<path fill="#DCD5CA" d="M146.8,18.2l7.4-0.9l0.3,2.6l-4.3,0.5l0.2,1.9l3.8-0.5l0.3,2.6l-3.8,0.5l0.3,2.2l4.3-0.5l0.3,2.6l-7.4,0.9
			L146.8,18.2z"/>
		<path fill="#DCD5CA" d="M167,16.5l3.2,0.1l-0.1,8.8l4.3,0.1l-0.1,3.2l-7.5-0.1L167,16.5z"/>
		<path fill="#DCD5CA" d="M185.5,29.3l1.7-11.9l5.3,0.7c1.9,0.3,3.3,2.1,3,4c-0.1,0.8-0.5,1.5-1.1,2c0.7,0.8,1.1,1.8,1,2.9
			c-0.3,1.9-2.1,3.3-4,3L185.5,29.3z M191.1,27.5c0.6,0.1,1.1-0.3,1.2-0.9c0.1-0.6-0.3-1.1-0.9-1.2l-2.1-0.3l-0.3,2.1L191.1,27.5z
			 M191.1,22.7c0.6,0.1,1.1-0.3,1.2-0.9c0.1-0.6-0.3-1.1-0.9-1.2l-1.5-0.2l-0.3,2.1L191.1,22.7z"/>
		<path fill="#DCD5CA" d="M208.7,21.4l7.2,2.1l-0.7,2.5l-4.1-1.2l-0.5,1.9l3.7,1l-0.7,2.6l-3.7-1l-0.6,2.1l4.2,1.2l-0.7,2.5
			l-7.2-2.1L208.7,21.4z"/>
		<path fill="#DCD5CA" d="M229.4,41.6l-0.4-3.7l-1.8-0.8l-1.3,2.9l-2.9-1.3l4.9-11l4.6,2.1c2.2,1,3.2,3.6,2.2,5.8
			c-0.5,1.2-1.5,2-2.6,2.4l0.6,5L229.4,41.6z M228.3,34.6l1.8,0.8c0.9,0.4,1.9,0,2.3-0.9c0.4-0.9,0-1.9-0.9-2.3l-1.8-0.8L228.3,34.6
			z"/>
		<path fill="#DCD5CA" d="M255,48.8l-0.2,0.4c-1.8,2.8-5.5,3.6-8.3,1.8c-2.8-1.8-3.6-5.5-1.8-8.3s5.5-3.6,8.3-1.8
			c1.4,0.9,2.3,2.3,2.6,3.8l-3.1,0.7c-0.2-0.7-0.6-1.3-1.3-1.8c-1.3-0.8-3-0.5-3.9,0.9c-0.9,1.4-0.4,3.1,0.8,3.9
			c0.8,0.5,1.8,0.6,2.6,0.3l-2-1.3l1.1-1.8L255,48.8z"/>
	</g>
	<g>
		<line fill="#DCD5CA" x1="60.1" y1="242.2" x2="279.7" y2="242.2"/>
		<path fill="#DCD5CA" d="M279.7,242.8H60.1c-0.3,0-0.6-0.3-0.6-0.6c0-0.3,0.3-0.6,0.6-0.6h219.6c0.3,0,0.6,0.3,0.6,0.6
			C280.3,242.5,280,242.8,279.7,242.8z"/>
	</g>
	<g>
		<g>
			<path fill="#DCD5CA" d="M302.9,138.2"/>
		</g>
		<g>
			<path fill="#DCD5CA" d="M149.9,129.4c-0.2,0-0.4-0.1-0.6-0.2l-36.1-22l-33,16.3c-0.6,0.3-1.3,0-1.6-0.5c-0.3-0.6,0-1.3,0.5-1.6
				l33.6-16.6c0.4-0.2,0.8-0.2,1.1,0l36,21.9l9.7-7.2c0.5-0.4,1.2-0.3,1.6,0.2c0.4,0.5,0.3,1.2-0.2,1.6l-10.3,7.7
				C150.4,129.3,150.2,129.4,149.9,129.4z"/>
		</g>
		<g>
			<path fill="#DCD5CA" d="M166.4,117c-0.4,0-0.7-0.2-0.9-0.5c-0.4-0.5-0.3-1.2,0.2-1.6l25.7-19.4c0.5-0.4,1.2-0.3,1.6,0.2
				c0.4,0.5,0.3,1.2-0.2,1.6l-25.7,19.4C166.9,116.9,166.6,117,166.4,117z"/>
		</g>
		<g>
			<path fill="#DCD5CA" d="M200.2,111.7c-0.2,0-0.5-0.1-0.7-0.2l-13.5-9.3c-0.5-0.4-0.7-1.1-0.3-1.6c0.4-0.5,1.1-0.7,1.6-0.3
				l13.5,9.3c0.5,0.4,0.7,1.1,0.3,1.6C200.9,111.6,200.6,111.7,200.2,111.7z"/>
		</g>
		<g>
			<path fill="#DCD5CA" d="M247.7,127.6c-0.2,0-0.4-0.1-0.6-0.2l-23.3-15l-10.6,7.3c-0.4,0.3-0.9,0.3-1.3,0l-6.6-4.6
				c-0.5-0.4-0.6-1.1-0.3-1.6c0.4-0.5,1.1-0.6,1.6-0.3l5.9,4.2l10.5-7.3c0.4-0.3,0.9-0.3,1.3,0l23.9,15.4c0.5,0.3,0.7,1.1,0.3,1.6
				C248.4,127.4,248,127.6,247.7,127.6z"/>
		</g>
		<g>
			<path fill="#DCD5CA" d="M222.9,98.9c-0.2,0-0.4-0.1-0.6-0.2L205,88.2l-6.7,5c-0.5,0.4-1.2,0.3-1.6-0.2c-0.4-0.5-0.3-1.2,0.2-1.6
				l7.3-5.5c0.4-0.3,0.9-0.3,1.3-0.1l18,10.9c0.5,0.3,0.7,1,0.4,1.6C223.7,98.7,223.3,98.9,222.9,98.9z"/>
		</g>
		<g>
			<path fill="#DCD5CA" d="M241.1,110c-0.2,0-0.4-0.1-0.6-0.2l-12.1-7.4c-0.5-0.3-0.7-1-0.4-1.6c0.3-0.5,1-0.7,1.6-0.4l12.1,7.4
				c0.5,0.3,0.7,1,0.4,1.6C241.8,109.8,241.5,110,241.1,110z"/>
		</g>
		<g>
			<path fill="#DCD5CA" d="M269.3,127.4c-0.2,0-0.4-0.1-0.6-0.2l-21-12.9c-0.5-0.3-0.7-1-0.4-1.6c0.3-0.5,1-0.7,1.6-0.4l21,12.9
				c0.5,0.3,0.7,1,0.4,1.6C270,127.2,269.7,127.4,269.3,127.4z"/>
		</g>
		<g>
			<path fill="#DCD5CA" d="M302.9,147.4c-0.2,0-0.4-0.1-0.6-0.2l-27.8-16.6c-0.5-0.3-0.7-1-0.4-1.6c0.3-0.6,1-0.7,1.6-0.4l27.8,16.6
				c0.5,0.3,0.7,1,0.4,1.6C303.7,147.2,303.3,147.4,302.9,147.4z"/>
		</g>
		<g>
			<path fill="#DCD5CA" d="M86.7,133.7c-0.4,0-0.8-0.2-1-0.6c-0.3-0.6-0.1-1.3,0.5-1.6l18.5-9.3c0.4-0.2,0.9-0.2,1.2,0.1l6.8,5.1
				l6.9-4.8c0.5-0.4,1.2-0.2,1.6,0.3c0.4,0.5,0.2,1.2-0.3,1.6l-7.6,5.3c-0.4,0.3-1,0.3-1.4,0l-6.9-5.2l-17.9,8.9
				C87,133.7,86.9,133.7,86.7,133.7z"/>
		</g>
		<g>
			<path fill="#DCD5CA" d="M125.4,121.3c-0.4,0-0.7-0.2-1-0.5c-0.4-0.5-0.2-1.2,0.3-1.6l5-3.5c0.5-0.4,1.2-0.2,1.6,0.3
				c0.4,0.5,0.2,1.2-0.3,1.6l-5,3.5C125.8,121.2,125.6,121.3,125.4,121.3z"/>
		</g>
		<g>
			<path fill="#DCD5CA" d="M36.5,145.7c-0.4,0-0.8-0.2-1-0.6c-0.3-0.6-0.1-1.3,0.5-1.6l34.7-17.3c0.6-0.3,1.3-0.1,1.6,0.5
				c0.3,0.6,0.1,1.3-0.5,1.6L37,145.6C36.8,145.7,36.7,145.7,36.5,145.7z"/>
		</g>
		<g>
			<path fill="#DCD5CA" d="M95.9,107.8c-0.6,0-1.2-0.5-1.2-1.2v-4.5c0-0.4,0.2-0.7,0.5-1l23.9-16.3c0.5-0.4,1.3-0.2,1.6,0.3
				c0.4,0.5,0.2,1.2-0.3,1.6l-23.4,16v3.9C97.1,107.3,96.6,107.8,95.9,107.8z"/>
		</g>
		<g>
			<path fill="#DCD5CA" d="M125.4,82.3c-0.4,0-0.7-0.2-1-0.5c-0.4-0.5-0.2-1.2,0.3-1.6l8.7-6.1c0.2-0.1,0.4-0.2,0.7-0.2h7.2l3-15.7
				c0.1-0.3,0.3-0.6,0.6-0.8l23.9-13.5c0.5-0.3,1.1-0.2,1.4,0.2L189.3,66c0.4,0.5,0.4,1.2-0.1,1.6c-0.5,0.4-1.2,0.4-1.6-0.1
				L169,46.4l-22.6,12.8l-3.1,16.1c-0.1,0.5-0.6,0.9-1.1,0.9h-7.7l-8.4,5.9C125.8,82.2,125.6,82.3,125.4,82.3z"/>
		</g>
		<g>
			<path fill="#DCD5CA" d="M205.6,88.4c-0.3,0-0.7-0.1-0.9-0.4l-13-15.7c-0.4-0.5-0.3-1.2,0.2-1.6c0.5-0.4,1.2-0.3,1.6,0.2l13,15.7
				c0.4,0.5,0.3,1.2-0.2,1.6C206.1,88.3,205.9,88.4,205.6,88.4z"/>
		</g>
		<g>
			<path fill="#DCD5CA" d="M164.2,60.3c-0.4,0-0.8-0.2-1-0.6c-0.3-0.6-0.1-1.3,0.4-1.6l11.3-6.7c0.5-0.3,1.3-0.1,1.6,0.4
				c0.3,0.6,0.1,1.3-0.4,1.6l-11.3,6.7C164.6,60.2,164.4,60.3,164.2,60.3z"/>
		</g>
		<g>
			<path fill="#DCD5CA" d="M132,100.5c-0.4,0-0.7-0.2-1-0.5c-0.4-0.5-0.2-1.2,0.3-1.6l31.1-21.1V64.1c0-0.6,0.5-1.2,1.2-1.2
				c0.6,0,1.2,0.5,1.2,1.2v13.9c0,0.4-0.2,0.7-0.5,1l-31.6,21.4C132.5,100.5,132.3,100.5,132,100.5z"/>
		</g>
		<g>
			<path fill="#DCD5CA" d="M172.3,79.1h-8.7c-0.6,0-1.2-0.5-1.2-1.2s0.5-1.2,1.2-1.2h8.7c0.6,0,1.2,0.5,1.2,1.2
				S172.9,79.1,172.3,79.1z"/>
		</g>
		<g>
			<path fill="#DCD5CA" d="M118.1,108.1"/>
		</g>
		<g>
			<path fill="#DCD5CA" d="M120.5,92.4c-0.3,0-0.6-0.1-0.9-0.4l-2.6-2.9c-0.4-0.5-0.4-1.2,0.1-1.6s1.2-0.4,1.6,0.1l2.6,2.9
				c0.4,0.5,0.4,1.2-0.1,1.6C121,92.3,120.7,92.4,120.5,92.4z"/>
		</g>
		<g>
			<g>
				<line fill="#DCD5CA" x1="78" y1="99.2" x2="75.2" y2="108.9"/>
				<path fill="#DCD5CA" d="M75.2,109.4c-0.1,0-0.1,0-0.2,0c-0.3-0.1-0.5-0.4-0.4-0.7l2.8-9.7c0.1-0.3,0.4-0.5,0.7-0.4
					c0.3,0.1,0.5,0.4,0.4,0.7l-2.8,9.7C75.7,109.3,75.5,109.4,75.2,109.4z"/>
			</g>
			<g>
				<line fill="#DCD5CA" x1="71.8" y1="102.6" x2="81.5" y2="105.4"/>
				<path fill="#DCD5CA" d="M81.5,106c-0.1,0-0.1,0-0.2,0l-9.7-2.8c-0.3-0.1-0.5-0.4-0.4-0.7c0.1-0.3,0.4-0.5,0.7-0.4l9.7,2.8
					c0.3,0.1,0.5,0.4,0.4,0.7C82,105.8,81.7,106,81.5,106z"/>
			</g>
		</g>
		<g>
			<g>
				<line fill="#DCD5CA" x1="228.2" y1="65.5" x2="223.2" y2="74.3"/>
				<path fill="#DCD5CA" d="M223.2,74.9c-0.1,0-0.2,0-0.3-0.1c-0.3-0.2-0.4-0.5-0.2-0.8l5-8.8c0.2-0.3,0.5-0.4,0.8-0.2
					c0.3,0.2,0.4,0.5,0.2,0.8l-5,8.8C223.6,74.7,223.4,74.9,223.2,74.9z"/>
			</g>
			<g>
				<line fill="#DCD5CA" x1="221.3" y1="67.4" x2="230.1" y2="72.4"/>
				<path fill="#DCD5CA" d="M230.1,73c-0.1,0-0.2,0-0.3-0.1l-8.8-5c-0.3-0.2-0.4-0.5-0.2-0.8c0.2-0.3,0.5-0.4,0.8-0.2l8.8,5
					c0.3,0.2,0.4,0.5,0.2,0.8C230.5,72.9,230.3,73,230.1,73z"/>
			</g>
		</g>
		<g>
			<path fill="#DCD5CA" d="M130.7,139.9H123c-0.4,0-0.8-0.2-1-0.6c-0.2-0.3-0.2-0.8,0-1.1l3.9-7.3c0.4-0.8,1.6-0.8,2,0l3.9,7.3
				c0.2,0.4,0.2,0.8,0,1.1C131.5,139.7,131.1,139.9,130.7,139.9z M124.9,137.6h3.9l-1.9-3.7L124.9,137.6z"/>
		</g>
		<g>
			<path fill="#DCD5CA" d="M174.3,133.2h-7.7c-0.4,0-0.8-0.2-1-0.6c-0.2-0.3-0.2-0.8,0-1.1l3.9-7.3c0.2-0.4,0.6-0.6,1-0.6l0,0
				c0.4,0,0.8,0.2,1,0.6l3.9,7.3c0.2,0.4,0.2,0.8,0,1.1C175.1,132.9,174.7,133.2,174.3,133.2z M168.5,130.8h3.9l-1.9-3.7
				L168.5,130.8z"/>
		</g>
		<g>
			<path fill="#DCD5CA" d="M190.1,125.2h-7.7c-0.4,0-0.8-0.2-1-0.6c-0.2-0.3-0.2-0.8,0-1.1l3.9-7.3c0.4-0.8,1.6-0.8,2,0l3.9,7.3
				c0.2,0.4,0.2,0.8,0,1.1C190.9,125,190.6,125.2,190.1,125.2z M184.3,122.9h3.9l-1.9-3.7L184.3,122.9z"/>
		</g>
		<g>
			<path fill="#DCD5CA" d="M197.1,138.4h-7.7c-0.4,0-0.8-0.2-1-0.6c-0.2-0.3-0.2-0.8,0-1.1l3.9-7.3c0.4-0.8,1.6-0.8,2,0l3.9,7.3
				c0.2,0.4,0.2,0.8,0,1.1C197.9,138.2,197.5,138.4,197.1,138.4z M191.3,136.1h3.9l-1.9-3.7L191.3,136.1z"/>
		</g>
		<g>
			<path fill="#DCD5CA" d="M237.2,136.8h-7.7c-0.4,0-0.8-0.2-1-0.6c-0.2-0.3-0.2-0.8,0-1.1l3.9-7.3c0.2-0.4,0.6-0.6,1-0.6l0,0
				c0.4,0,0.8,0.2,1,0.6l3.9,7.3c0.2,0.4,0.2,0.8,0,1.1C238,136.6,237.7,136.8,237.2,136.8z M231.4,134.5h3.9l-1.9-3.7L231.4,134.5z
				"/>
		</g>
	</g>
</g>
</svg>
